<?xml version="1.0" standalone="no"?>
<!DOCTYPE svg PUBLIC "-//W3C//DTD SVG 20010904//EN"
 "http://www.w3.org/TR/2001/REC-SVG-20010904/DTD/svg10.dtd">
<svg version="1.0" xmlns="http://www.w3.org/2000/svg"
 width="481.000000pt" height="106.000000pt" viewBox="0 0 481.000000 106.000000"
 preserveAspectRatio="xMidYMid meet">

<g transform="translate(0.000000,106.000000) scale(0.100000,-0.100000)"
fill="#000000" stroke="none">
<path d="M3020 721 l0 -99 -62 5 c-74 5 -120 -14 -155 -67 -61 -89 11 -223
118 -222 24 0 79 1 122 1 l77 1 0 94 c0 87 2 96 22 110 61 43 88 8 88 -112 l0
-92 50 0 50 0 0 34 0 34 33 -33 c45 -45 94 -54 147 -27 31 15 40 16 40 6 0
-10 14 -14 50 -14 l51 0 -3 143 -3 142 -45 -3 c-25 -2 -46 -8 -48 -13 -2 -5
-13 -2 -25 6 -50 35 -159 8 -188 -47 l-12 -22 -8 22 c-20 52 -110 77 -169 47
l-30 -16 0 111 0 110 -50 0 -50 0 0 -99z m0 -243 c-1 -67 -3 -88 -11 -76 -7
13 -17 16 -39 11 -59 -11 -103 42 -80 98 13 31 44 44 85 37 14 -3 26 0 29 8
12 31 16 9 16 -78z m512 55 c22 -20 24 -76 2 -97 -20 -21 -73 -20 -96 1 -10 9
-18 29 -18 45 0 57 70 89 112 51z"/>
<path d="M312 791 c-99 -35 -165 -123 -165 -221 0 -174 206 -293 367 -211 32
17 35 17 57 0 40 -30 94 -34 139 -10 33 17 40 18 40 6 0 -11 12 -15 45 -15
l45 0 0 139 0 138 -37 7 c-27 4 -41 2 -48 -8 -9 -12 -14 -12 -35 0 -14 7 -46
13 -72 14 -39 0 -54 -6 -82 -30 -41 -36 -61 -88 -53 -139 5 -27 4 -32 -4 -18
-7 12 -15 15 -27 8 -62 -31 -143 -17 -189 33 -28 30 -33 43 -33 86 0 43 5 56
33 86 42 46 97 59 161 40 l47 -14 19 39 c11 21 20 41 20 44 0 12 -66 33 -120
39 -41 5 -69 1 -108 -13z m418 -263 c42 -45 14 -108 -49 -108 -21 0 -43 6 -49
13 -57 68 37 160 98 95z"/>
<path d="M2220 628 c-1 -129 -3 -168 -11 -154 -6 10 -35 29 -65 42 -30 13 -54
28 -54 33 0 16 28 20 62 10 18 -5 33 -9 34 -9 7 0 25 62 20 67 -9 10 -112 16
-141 9 -67 -17 -88 -96 -39 -141 15 -14 33 -25 39 -25 7 0 23 -8 35 -18 19
-16 20 -19 7 -30 -12 -11 -22 -10 -53 3 -37 15 -39 15 -56 -7 -24 -32 -22 -44
10 -56 77 -30 135 -25 182 15 l30 25 0 -26 0 -26 178 0 177 0 30 41 30 40 35
-41 c33 -38 38 -40 88 -40 28 0 52 3 52 6 0 4 -19 30 -43 58 -78 93 -75 79
-23 146 25 33 46 65 46 70 0 6 -21 10 -46 10 -41 0 -51 -5 -77 -34 l-30 -34
-32 34 c-27 28 -40 34 -73 34 -22 0 -43 -4 -46 -8 -3 -5 15 -33 39 -63 24 -30
44 -61 44 -69 0 -8 -20 -37 -44 -65 -43 -49 -45 -49 -45 -22 l0 27 -81 0 -80
0 3 48 3 47 73 3 72 3 0 44 0 45 -75 0 -75 0 0 45 0 45 80 0 80 0 0 45 0 45
-130 0 -130 0 0 -172z"/>
<path d="M865 622 c-3 -3 -5 -68 -5 -144 l0 -139 48 3 47 3 3 97 c2 84 5 99
22 108 20 11 50 4 62 -14 4 -6 8 -53 8 -103 l0 -93 50 0 50 0 0 94 c0 87 2 96
22 110 29 20 34 20 58 -4 17 -17 20 -33 20 -110 l0 -90 45 0 45 0 0 119 0 119
-31 26 c-38 32 -90 34 -137 6 l-33 -20 -26 20 c-31 24 -99 27 -130 5 -13 -9
-23 -11 -25 -4 -4 11 -83 20 -93 11z"/>
<path d="M1398 622 l-38 -3 0 -210 0 -209 45 0 45 0 0 80 c0 44 2 80 4 80 2 0
21 -7 41 -16 62 -26 154 5 170 56 9 28 18 25 33 -9 17 -39 63 -56 145 -55 115
1 145 42 146 195 l1 86 -42 6 c-23 3 -46 3 -50 1 -4 -3 -8 -42 -8 -87 0 -92
-15 -127 -55 -127 -44 0 -55 23 -55 119 l0 88 -41 7 c-51 8 -59 3 -59 -38 l0
-34 -39 39 c-34 35 -44 39 -88 39 -28 0 -58 -7 -71 -16 -20 -13 -25 -14 -35
-2 -7 8 -27 12 -49 10z m175 -103 c33 -45 1 -99 -58 -99 -59 0 -86 69 -44 111
28 28 76 22 102 -12z"/>
<path d="M3700 621 l-35 -6 0 -135 0 -135 48 -3 47 -3 0 90 c0 78 3 94 20 111
25 25 52 26 73 2 13 -15 17 -39 17 -110 l0 -92 50 0 50 0 0 36 0 36 25 -31
c41 -48 111 -62 178 -36 13 6 17 2 17 -18 0 -13 -7 -31 -16 -38 -23 -19 -90
-17 -110 3 -16 16 -20 16 -56 -3 -44 -23 -46 -28 -15 -57 74 -70 242 -50 281
32 10 21 16 61 16 103 l0 68 19 -29 c56 -84 186 -99 254 -28 l27 28 -36 18
c-33 15 -38 15 -54 1 -23 -21 -73 -19 -93 3 -33 36 -22 42 83 42 l100 0 0 33
c-1 134 -201 177 -277 60 l-18 -27 -5 44 c-5 43 -6 45 -41 48 -22 2 -42 -3
-51 -11 -12 -12 -17 -13 -33 -1 -45 33 -149 8 -176 -43 l-12 -23 -31 36 c-39
45 -108 58 -152 29 -25 -16 -28 -16 -36 -1 -5 9 -12 15 -16 15 -4 -1 -23 -4
-42 -8z m784 -67 c27 -26 18 -34 -39 -34 -30 0 -55 4 -55 9 0 18 31 41 55 41
13 0 31 -7 39 -16z m-304 -31 c22 -28 21 -63 -2 -90 -18 -22 -85 -16 -102 9
-21 30 -20 50 5 82 28 35 70 35 99 -1z"/>
</g>
</svg>
